# xmcd
#
# Track frame offsets: 
#        150
#        15652
#        27697
#        41875
#        51912
#        78985
#        93882
#        110620
#        125102
#        139310
#        152117
#
# Disc length: 2236 seconds
#
# Revision: 3
# Processed by: cddbd v1.5.2PL0 Copyright (c) Steve Scherf et al.
# Submitted via: ExactAudioCopyFreeDBPlugin 1.0
#
DISCID=9908ba0b
DTITLE=Budos Band - Budos Band
DYEAR=2007
DGENRE=Funk
TTITLE0=Up From The South
TTITLE1=T.I.B.W.F.
TTITLE2=Budos Theme
TTITLE3=Ghost Walk
TTITLE4=Monkey See, Monkey Do
TTITLE5=Sing A Simple Song
TTITLE6=Eastbound
TTITLE7=Aynotchesh Yererfu
TTITLE8=King Charles
TTITLE9=The Volcano Song
TTITLE10=Across The Atlantic
EXTD=
EXTT0=
EXTT1=
EXTT2=
EXTT3=
EXTT4=
EXTT5=
EXTT6=
EXTT7=
EXTT8=
EXTT9=
EXTT10=
PLAYORDER=
